{
  "version": "",
  "modules": [
    {
      "plugin": "ABC",
      "model": "AEnvFollower",
      "pos": [
        465.0,
        0.0
      ],
      "params": [
        0.00075000000651925802
      ]
    },
    {
      "plugin": "Fundamental",
      "model": "VCO",
      "pos": [
        90.0,
        0.0
      ],
      "params": [
        1.0,
        1.0,
        -16.361915588378906,
        0.0,
        0.5,
        0.0,
        0.0
      ]
    },
    {
      "plugin": "Fundamental",
      "model": "Scope",
      "pos": [
        585.0,
        0.0
      ],
      "params": [
        0.0,
        0.0,
        0.0,
        0.0,
        -13.189981460571289,
        0.0,
        0.0,
        0.0
      ],
      "data": {
        "lissajous": 0,
        "external": 0
      }
    },
    {
      "plugin": "Fundamental",
      "model": "LFO",
      "pos": [
        90.0,
        380.0
      ],
      "params": [
        1.0,
        1.0,
        6.0,
        0.0,
        0.5,
        0.0,
        0.0
      ]
    },
    {
      "plugin": "Fundamental",
      "model": "VCA",
      "pos": [
        315.0,
        0.0
      ],
      "params": [
        0.5,
        0.5
      ]
    },
    {
      "plugin": "Core",
      "model": "AudioInterface",
      "pos": [
        945.0,
        0.0
      ],
      "params": [],
      "data": {
        "driver": 1,
        "device": 4,
        "sampleRate": 48000.0,
        "blockSize": 256
      }
    }
  ],
  "wires": [
    {
      "outputModuleId": 0,
      "outputId": 0,
      "inputModuleId": 2,
      "inputId": 1
    },
    {
      "outputModuleId": 1,
      "outputId": 1,
      "inputModuleId": 4,
      "inputId": 2
    },
    {
      "outputModuleId": 4,
      "outputId": 0,
      "inputModuleId": 0,
      "inputId": 0
    },
    {
      "outputModuleId": 4,
      "outputId": 0,
      "inputModuleId": 2,
      "inputId": 0
    },
    {
      "outputModuleId": 0,
      "outputId": 0,
      "inputModuleId": 5,
      "inputId": 0
    },
    {
      "outputModuleId": 3,
      "outputId": 0,
      "inputModuleId": 4,
      "inputId": 1
    }
  ]
}
