{
  "version": "1.dev.2db08f1",
  "modules": [
    {
      "id": 7,
      "plugin": "Fundamental",
      "version": "1.0.0",
      "model": "Scope",
      "params": [
        {
          "id": 0,
          "value": 0.0
        },
        {
          "id": 1,
          "value": 0.0
        },
        {
          "id": 2,
          "value": 0.0
        },
        {
          "id": 3,
          "value": 0.0
        },
        {
          "id": 4,
          "value": 14.0
        },
        {
          "id": 5,
          "value": 0.0
        },
        {
          "id": 6,
          "value": 0.0
        },
        {
          "id": 7,
          "value": 0.0
        }
      ],
      "rightModuleId": 2,
      "data": {
        "lissajous": 0,
        "external": 0
      },
      "pos": [
        22,
        1
      ]
    },
    {
      "id": 1,
      "plugin": "Core",
      "version": "1.1.6",
      "model": "AudioInterface",
      "params": [],
      "leftModuleId": 2,
      "data": {
        "audio": {
          "driver": 1,
          "deviceName": "default",
          "offset": 0,
          "maxChannels": 8,
          "sampleRate": 44100,
          "blockSize": 4096
        }
      },
      "pos": [
        45,
        1
      ]
    },
    {
      "id": 2,
      "plugin": "Fundamental",
      "version": "1.0.0",
      "model": "VCMixer",
      "params": [
        {
          "id": 0,
          "value": 1.45999968
        },
        {
          "id": 1,
          "value": 1.0
        },
        {
          "id": 2,
          "value": 1.00974834
        },
        {
          "id": 3,
          "value": 1.0
        },
        {
          "id": 4,
          "value": 1.0
        }
      ],
      "leftModuleId": 7,
      "rightModuleId": 1,
      "pos": [
        35,
        1
      ]
    },
    {
      "id": 8,
      "plugin": "Core",
      "version": "1.1.6",
      "model": "Notes",
      "params": [],
      "text": "Let the mass fall and bounce by clicking on the black area. The mass will excite a bank of modal filters by impacting on the ground. The x coordinate where the mass falls determines the spectral slope. ",
      "pos": [
        5,
        0
      ]
    },
    {
      "id": 24,
      "plugin": "ABC",
      "version": "1.0.0",
      "model": "AModalGUI",
      "params": [
        {
          "id": 0,
          "value": 1.74040008
        },
        {
          "id": 1,
          "value": 0.00150009862
        },
        {
          "id": 2,
          "value": 1.0
        },
        {
          "id": 3,
          "value": 0.0
        },
        {
          "id": 4,
          "value": 0.0
        }
      ],
      "data": {
        "nActiveOsc": 16,
        "hitPoint": 0.00022222221
      },
      "pos": [
        0,
        1
      ]
    }
  ],
  "cables": [
    {
      "id": 15,
      "outputModuleId": 2,
      "outputId": 0,
      "inputModuleId": 1,
      "inputId": 1,
      "color": "#0c8e15"
    },
    {
      "id": 14,
      "outputModuleId": 2,
      "outputId": 0,
      "inputModuleId": 1,
      "inputId": 0,
      "color": "#c9b70e"
    },
    {
      "id": 41,
      "outputModuleId": 24,
      "outputId": 0,
      "inputModuleId": 7,
      "inputId": 0,
      "color": "#0986ad"
    },
    {
      "id": 42,
      "outputModuleId": 24,
      "outputId": 0,
      "inputModuleId": 2,
      "inputId": 1,
      "color": "#c9b70e"
    }
  ]
}