{
  "version": "",
  "modules": [
    {
      "plugin": "Fundamental",
      "model": "VCO",
      "pos": [
        0.0,
        0.0
      ],
      "params": [
        1.0,
        1.0,
        27.917995452880859,
        0.0,
        0.5,
        0.35549995303153992,
        0.0
      ]
    },
    {
      "plugin": "ABC",
      "model": "AWavefolder",
      "pos": [
        240.0,
        0.0
      ],
      "params": [
        0.84900009632110596,
        0.31900003552436829,
        1.3436456918716431,
        0.0
      ]
    },
    {
      "plugin": "LOGinstruments",
      "model": "Speck",
      "pos": [
        345.0,
        0.0
      ],
      "params": [
        -1.0,
        0.0,
        -1.0,
        0.0,
        1.0,
        0.0,
        0.0,
        0.0
      ],
      "data": {
        "linLog": 0
      }
    },
    {
      "plugin": "Core",
      "model": "AudioInterface",
      "pos": [
        795.0,
        0.0
      ],
      "params": [],
      "data": {
        "driver": 1,
        "device": 4,
        "sampleRate": 44100.0,
        "blockSize": 64
      }
    },
    {
      "plugin": "Fundamental",
      "model": "Scope",
      "pos": [
        210.0,
        380.0
      ],
      "params": [
        0.0,
        0.0,
        0.0,
        0.0,
        -14.0,
        0.0,
        2.1899993419647217,
        0.0
      ],
      "data": {
        "lissajous": 0,
        "external": 0
      }
    },
    {
      "plugin": "Fundamental",
      "model": "LFO",
      "pos": [
        15.0,
        380.0
      ],
      "params": [
        1.0,
        1.0,
        -5.1160054206848145,
        0.0,
        0.5,
        0.0,
        0.0
      ]
    }
  ],
  "wires": [
    {
      "outputModuleId": 2,
      "outputId": 0,
      "inputModuleId": 3,
      "inputId": 0
    },
    {
      "outputModuleId": 1,
      "outputId": 0,
      "inputModuleId": 2,
      "inputId": 0
    },
    {
      "outputModuleId": 2,
      "outputId": 0,
      "inputModuleId": 4,
      "inputId": 0
    },
    {
      "outputModuleId": 2,
      "outputId": 0,
      "inputModuleId": 3,
      "inputId": 1
    },
    {
      "outputModuleId": 0,
      "outputId": 0,
      "inputModuleId": 1,
      "inputId": 0
    },
    {
      "outputModuleId": 5,
      "outputId": 0,
      "inputModuleId": 0,
      "inputId": 1
    }
  ]
}
